PathFileType	4	(X/Y/Z)	Patient4_TMGait_0pt7_02_left_22.trc.trc
DataRate	CameraRate	NumFrames	NumMarkers	Units	OrigDataRate	OrigDataStartFrame	OrigNumFrames
89.743589743590	89.743589743590	4	33	mm	89.743589743590	71	       141
Frame#	Time	Sacral			L.Shoulder			Chest			R.Shoulder			Neck			R.ASIS			L.ASIS			R.Thigh.Superior			R.Thigh.Lateral			R.Thigh.Inferior			R.Patella			L.Thigh.Superior			L.Thigh.Lateral			L.Thigh.Inferior			L.Patella			L.Shank.Superior			L.Shank.Lateral			L.Shank.Inferior			R.Shank.Superior			R.Shank.Lateral			R.Shank.Inferior			R.Heel			R.Midfoot.Superior			R.Midfoot.Lateral			R.Toe			L.Heel			L.Midfoot.Lateral			L.Midfoot.Superior			L.Toe			L.Elbow			L.Wrist			R.Elbow			R.Wrist			
		X1	Y1	Z1	X2	Y2	Z2	X3	Y3	Z3	X4	Y4	Z4	X5	Y5	Z5	X6	Y6	Z6	X7	Y7	Z7	X8	Y8	Z8	X9	Y9	Z9	X10	Y10	Z10	X11	Y11	Z11	X12	Y12	Z12	X13	Y13	Z13	X14	Y14	Z14	X15	Y15	Z15	X16	Y16	Z16	X17	Y17	Z17	X18	Y18	Z18	X19	Y19	Z19	X20	Y20	Z20	X21	Y21	Z21	X22	Y22	Z22	X23	Y23	Z23	X24	Y24	Z24	X25	Y25	Z25	X26	Y26	Z26	X27	Y27	Z27	X28	Y28	Z28	X29	Y29	Z29	X30	Y30	Z30	X31	Y31	Z31	X32	Y32	Z32	X33	Y33	Z33	

71	25.800000000000	844.058920714723	1002.456502825726	463.923997985362	1049.159640184639	1422.512077434407	289.830297743939	1139.629907053332	1347.625395235198	456.457068558595	1050.811285477604	1427.223166862784	624.839873621033	1042.915973345012	1483.334389668015	444.263547531754	1061.874773703748	933.388082279646	595.880549382071	1064.634910432467	949.166674106515	320.022081674840	1136.604507103131	761.289951864410	567.000391432842	1091.340731394322	638.708674131003	637.419211146521	1179.262853550116	604.305004385929	556.278715867843	1211.720159021279	520.698029195923	572.234032388478	1065.358923643614	722.531868448665	352.049974862249	951.555921523629	630.124234589684	282.349996692688	1005.362954613495	535.273848959820	350.575910984942	988.489962190533	468.455621034090	359.932971160363	953.951983928867	402.270532140084	349.007204673266	851.505714348623	302.641770050915	291.380935511515	877.049777613499	185.678501953199	365.645151895408	1196.527159182113	429.884602044399	582.134518697977	1142.441071144068	314.965525699202	642.565123800159	1212.050148111881	229.686277269797	589.542519596745	1119.364414771643	43.850401557201	559.887609231370	1283.459955527346	117.208293365571	596.461617701374	1205.793746772667	40.579865729374	629.695687619341	1408.347978189481	79.684284009505	617.997190992720	729.944777677571	38.658016656849	398.251424330666	807.160800989771	35.516418191677	321.056078170024	889.979424443556	95.184357556041	352.320241442325	1019.242822574142	41.006107938620	327.638859224313	1136.289276812046	1109.994767532350	134.411441035734	1381.675714318685	1074.232053167647	200.388631417031	894.902871786874	1123.239094663259	742.840451309635	833.528839196791	870.260767147387	759.923240637391	
72	25.811142857143	846.373094612860	1000.087771959830	466.590111447637	1049.475631052935	1420.547002860798	292.242482181612	1140.481778213537	1346.435421787741	458.986402842034	1051.194757669290	1425.952489637319	627.186415983375	1043.114259451881	1481.573530138519	446.488892892080	1064.499315192859	931.018488052131	598.390007711272	1067.001954585049	947.551992592096	322.682049942306	1138.715659877546	758.139312056266	569.412420379881	1091.156482566878	635.071221759589	637.671003680677	1179.861633834006	601.229024407985	557.381546533432	1210.414709955595	517.456085794475	571.754905417476	1066.498910915299	720.469621027939	353.403026633506	951.656756353116	628.665504023785	284.166832646678	1005.355381041719	533.288020107446	351.905713351223	988.221175970111	465.788483914064	361.007715889793	951.960505704249	400.126158979248	350.180645370539	847.548012625803	302.576220192820	292.331987330336	871.024715399308	184.884744158690	365.973565338690	1196.096078367783	426.420793279679	581.438323597777	1142.049803279658	311.016689322292	640.739306589629	1212.159267740653	226.407417008787	587.469642900757	1119.473186068750	42.140560498726	556.603147704514	1283.704573766079	113.983125389097	593.713634716536	1205.239901081245	39.074819582999	627.240956390423	1408.137091440664	75.658413866047	616.482018501702	722.026714901327	39.034059602605	398.090401171446	799.349939044360	35.506509219378	321.030156550044	882.449780937552	95.072036944418	352.225804885380	1011.555132575432	40.848268268053	327.490502785556	1136.998219453142	1108.565719848206	136.257210635691	1382.348524068969	1083.317968371381	204.518244375700	891.515028072487	1124.851197830147	745.116163578900	828.393570699714	872.026338312077	760.910540460862	
73	25.822285714286	848.587077808097	997.807765681379	469.454355611162	1049.791134779077	1418.621102429533	294.771428831437	1141.395723802119	1345.277775994756	461.617410175543	1051.699817654333	1424.693372206639	629.687591207088	1043.423150408767	1479.900581800709	448.878581425419	1067.179098228930	928.748325378363	600.915229846400	1069.221653214291	945.996387888649	325.408751520108	1141.351367195613	755.404417453025	571.768812130276	1091.518259477791	631.875870133618	637.805945165565	1181.119093739233	598.574327350255	558.481487366193	1209.743524477381	514.362800765037	571.182259490160	1068.103804343356	718.583354931865	354.774061999794	952.496292536513	627.037464547602	286.198688427828	1006.553786405061	531.227116134482	353.321878156370	989.330648872565	462.842119875655	362.083208924565	950.991770877728	397.795693152074	351.437316874468	844.332134206409	302.713851127677	293.398927359921	865.463682393231	184.219223338364	366.264692871605	1195.773403159334	423.095017673830	580.604860409887	1141.294155704661	307.642752785592	639.177718226222	1210.944168986389	223.195999506391	585.455046179035	1116.709777902529	41.238552140712	553.880233259102	1281.616746695539	110.562348328514	591.172970144210	1201.858944398546	38.030907867727	625.300968882192	1405.365354170134	70.660169789236	615.082793030646	714.188894591310	40.020752322067	397.839235715273	791.605705069602	35.771396951884	320.958715094804	875.158130484431	95.011713408524	352.043816128901	1003.887707686058	40.624550729242	327.349402294150	1137.277682515380	1106.860668364195	138.342253412924	1382.248201019787	1091.245798122891	208.561247308257	888.852427238334	1126.014690491622	747.299641298027	824.339289128200	873.220895789105	762.014912434960	
74	25.833428571429	850.645751878161	995.722976251473	472.464562427142	1050.141573162345	1416.848920454926	297.412405989853	1142.377102753927	1344.214742399547	464.333680372202	1052.362278621825	1423.502074905722	632.341204094085	1043.890348828660	1478.409766233124	451.443775989700	1069.842137766511	926.707805225241	603.438240246703	1071.225720552541	944.596058800943	328.148005206895	1144.348835064518	753.147114344896	574.026320127741	1092.396988553391	629.280269688245	637.968530692298	1182.840878140515	596.406106645671	559.570835436806	1209.636021845514	511.572074242709	570.619960390476	1070.187007610286	716.969242961324	356.214284374194	954.172550472054	625.286894750368	288.427807551375	1009.071628885468	529.162468510841	354.825997962508	991.929977463714	459.693726814600	363.126392287677	951.164387751449	395.360994434538	352.745047948649	841.987995039839	303.173216530383	294.566327339650	860.492659159446	183.812076716876	366.501484958116	1195.556432508019	420.066167601885	579.748512116794	1140.348684483263	304.920413907247	638.050730330177	1208.673017720798	220.193205247733	583.622316522532	1111.659702830310	40.931330053268	551.819861619713	1277.623113618444	107.188631047266	588.972295096597	1196.287636280346	37.362073463840	623.923599024074	1400.579542726515	65.259457832748	613.842400385947	706.515866980201	41.900392435290	397.496051088533	783.975812043560	36.486861986282	320.839206325742	868.201448702036	95.062122157641	351.764194910487	996.225713257723	40.305490476256	327.238456274223	1137.063008612774	1104.939747200945	140.694157867935	1381.439750791183	1097.931186782593	212.492863839469	887.053908786888	1126.661998352006	749.381508892401	821.463551845857	873.807182990677	763.221260980336	
